<svg width="16" height="17" viewBox="0 0 16 17" fill="none" xmlns="http://www.w3.org/2000/svg">
<mask id="path-1-inside-1_6_422" fill="white">
<path fill-rule="evenodd" clip-rule="evenodd" d="M15.9999 10.5231C14.7608 11.9215 12.9513 12.8029 10.936 12.8029C7.20053 12.8029 4.17235 9.77471 4.17235 6.03927C4.17235 4.02393 5.05379 2.21446 6.45219 0.975342C3.0414 1.83377 0.516357 4.92123 0.516357 8.59845C0.516357 12.9396 4.03559 16.4589 8.37679 16.4589C12.054 16.4589 15.1415 13.9339 15.9999 10.5231Z"/>
</mask>
<path d="M15.9999 10.5231L16.9696 10.7671L15.2514 9.85988L15.9999 10.5231ZM6.45219 0.975342L7.11539 1.72379L6.20812 0.00558352L6.45219 0.975342ZM15.2514 9.85988C14.1941 11.0532 12.6532 11.8029 10.936 11.8029V13.8029C13.2494 13.8029 15.3275 12.7898 16.7483 11.1863L15.2514 9.85988ZM10.936 11.8029C7.75282 11.8029 5.17235 9.22243 5.17235 6.03927H3.17235C3.17235 10.327 6.64825 13.8029 10.936 13.8029V11.8029ZM5.17235 6.03927C5.17235 4.32202 5.9221 2.78116 7.11539 1.72379L5.78899 0.226896C4.18548 1.64776 3.17235 3.72583 3.17235 6.03927H5.17235ZM1.51636 8.59845C1.51636 5.3904 3.71924 2.69435 6.69626 1.9451L6.20812 0.00558352C2.36356 0.973178 -0.483643 4.45206 -0.483643 8.59845H1.51636ZM8.37679 15.4589C4.58788 15.4589 1.51636 12.3874 1.51636 8.59845H-0.483643C-0.483643 13.4919 3.48331 17.4589 8.37679 17.4589V15.4589ZM15.0301 10.279C14.2809 13.256 11.5848 15.4589 8.37679 15.4589V17.4589C12.5232 17.4589 16.002 14.6117 16.9696 10.7671L15.0301 10.279Z" fill="#E0B000" mask="url(#path-1-inside-1_6_422)"/>
</svg>
